<?xml version="1.0" encoding="utf-8"?>
<!-- Generator: Adobe Illustrator 16.0.0, SVG Export Plug-In . SVG Version: 6.00 Build 0)  -->
<!DOCTYPE svg PUBLIC "-//W3C//DTD SVG 1.1//EN" "http://www.w3.org/Graphics/SVG/1.1/DTD/svg11.dtd">
<svg version="1.1" id="Layer_2" xmlns="http://www.w3.org/2000/svg" xmlns:xlink="http://www.w3.org/1999/xlink" x="0px" y="0px"
	 width="1319.28px" height="936px" viewBox="0 0 1319.28 936" enable-background="new 0 0 1319.28 936" xml:space="preserve">
<g>
	<path d="M90.476,870.203c-9.525,0-19.116-3.1-27.156-9.48c-18.915-15.016-22.078-42.518-7.063-61.432L625.334,82.337
		c8.292-10.45,20.905-16.54,34.245-16.54c13.339-0.002,25.952,6.088,34.247,16.538l569.198,716.95
		c10.433,13.143,12.427,31.094,5.13,46.205c-7.297,15.109-22.596,24.709-39.377,24.709H960.363c-13.342,0-25.952-6.09-34.247-16.541
		L742.865,622.791l-63.215,79.648c-8.295,10.449-20.907,16.541-34.25,16.541c-0.005,0-0.005,0-0.01,0
		c-13.342-0.002-25.957-6.1-34.25-16.555L428.043,471.559L124.752,853.658C116.121,864.535,103.359,870.203,90.476,870.203z
		 M981.483,782.748h156.748L659.586,179.852L483.875,401.218l161.54,203.684l63.198-79.629
		c8.294-10.451,20.907-16.543,34.249-16.543s25.955,6.09,34.25,16.543L981.483,782.748z"/>
</g>
</svg>
