<?xml version="1.0" encoding="UTF-8"?>
<svg version="1.1" xmlns="http://www.w3.org/2000/svg" width="1319" height="936">
<path d="M0 0 C6.3698365 5.88982845 11.68828726 12.64138522 16.91235352 19.54223633 C20.25520789 23.95124178 23.72116947 28.24613615 27.23046875 32.5234375 C31.71982961 38.00369035 36.08172365 43.56109973 40.35546875 49.2109375 C45.30388388 55.74903379 50.44083663 62.09771226 55.68725586 68.39819336 C60.29059283 73.95064566 64.67623828 79.64448038 69.0234375 85.3984375 C72.86752211 90.46183224 76.85016234 95.38847793 80.91796875 100.2734375 C86.1252345 106.52675442 91.11846332 112.9062089 96.0234375 119.3984375 C99.86752211 124.46183224 103.85016234 129.38847793 107.91796875 134.2734375 C112.55567128 139.84277563 117.04908598 145.49079942 121.41796875 151.2734375 C126.41315219 157.88486673 131.59933016 164.30603317 136.89624023 170.67749023 C141.18834379 175.85186951 145.3021108 181.12829346 149.37109375 186.48046875 C152.24323731 190.22768299 155.23784045 193.87227164 158.23046875 197.5234375 C162.719544 203.0039326 167.08171447 208.56108759 171.35546875 214.2109375 C176.30388388 220.74903379 181.44083663 227.09771226 186.68725586 233.39819336 C191.29059283 238.95064566 195.67623828 244.64448038 200.0234375 250.3984375 C203.86752211 255.46183224 207.85016234 260.38847793 211.91796875 265.2734375 C216.55567128 270.84277563 221.04908598 276.49079942 225.41796875 282.2734375 C230.41315219 288.88486673 235.59933016 295.30603317 240.89624023 301.67749023 C245.18834379 306.85186951 249.3021108 312.12829346 253.37109375 317.48046875 C256.24323731 321.22768299 259.23784045 324.87227164 262.23046875 328.5234375 C266.719544 334.0039326 271.08171447 339.56108759 275.35546875 345.2109375 C280.30388388 351.74903379 285.44083663 358.09771226 290.68725586 364.39819336 C295.29059283 369.95064566 299.67623828 375.64448038 304.0234375 381.3984375 C307.86752211 386.46183224 311.85016234 391.38847793 315.91796875 396.2734375 C321.1252345 402.52675442 326.11846332 408.9062089 331.0234375 415.3984375 C334.86752211 420.46183224 338.85016234 425.38847793 342.91796875 430.2734375 C347.55567128 435.84277563 352.04908598 441.49079942 356.41796875 447.2734375 C361.41315219 453.88486673 366.59933016 460.30603317 371.89624023 466.67749023 C376.18834379 471.85186951 380.3021108 477.12829346 384.37109375 482.48046875 C387.24323731 486.22768299 390.23784045 489.87227164 393.23046875 493.5234375 C397.719544 499.0039326 402.08171447 504.56108759 406.35546875 510.2109375 C411.30388388 516.74903379 416.44083663 523.09771226 421.68725586 529.39819336 C426.29059283 534.95064566 430.67623828 540.64448038 435.0234375 546.3984375 C438.86752211 551.46183224 442.85016234 556.38847793 446.91796875 561.2734375 C451.55567128 566.84277563 456.04908598 572.49079942 460.41796875 578.2734375 C465.41315219 584.88486673 470.59933016 591.30603317 475.89624023 597.67749023 C480.18834379 602.85186951 484.3021108 608.12829346 488.37109375 613.48046875 C491.24323731 617.22768299 494.23784045 620.87227164 497.23046875 624.5234375 C501.719544 630.0039326 506.08171447 635.56108759 510.35546875 641.2109375 C515.30388388 647.74903379 520.44083663 654.09771226 525.68725586 660.39819336 C530.29059283 665.95064566 534.67623828 671.64448038 539.0234375 677.3984375 C542.86752468 682.46183562 546.85021702 687.38842828 550.91796875 692.2734375 C556.25723384 698.68664151 561.40781493 705.21559883 566.42773438 711.88183594 C569.31262874 715.70870015 572.28605632 719.39299968 575.41796875 723.0234375 C582.7885636 732.12370683 585.87681533 744.19625283 584.91796875 755.7734375 C582.96368911 767.89659593 577.90993828 779.24371801 567.91796875 786.7734375 C556.08529291 793.99579453 545.105163 796.08760753 531.30505371 796.02740479 C529.63038285 796.03208476 529.63038285 796.03208476 527.92188025 796.03685927 C524.20893296 796.04478864 520.49615141 796.03853538 516.78320312 796.03222656 C514.10980252 796.03493867 511.43641304 796.03842896 508.76301575 796.04284668 C502.27237059 796.05171052 495.78177186 796.04983214 489.29112494 796.0440214 C484.01306442 796.03949302 478.73501686 796.03889708 473.45695496 796.04106903 C472.70394768 796.0413755 471.9509404 796.04168196 471.17511472 796.04199772 C469.64509364 796.04263721 468.11507255 796.04328563 466.58505148 796.0439429 C452.25927067 796.04963738 437.93351551 796.04310217 423.60773891 796.03234217 C411.33239253 796.02340746 399.05708398 796.02495975 386.78173828 796.03417969 C372.50500761 796.04489793 358.22829939 796.04908814 343.95156527 796.04295516 C342.42737103 796.0423181 340.90317679 796.04168936 339.37898254 796.04106903 C338.25426844 796.0406062 338.25426844 796.0406062 337.10683283 796.04013403 C331.83897252 796.03841175 326.57112653 796.04131209 321.30326843 796.04602814 C314.87798941 796.05165426 308.45275921 796.05008425 302.02748573 796.03946665 C298.75318386 796.03423315 295.47897944 796.03320145 292.20467567 796.03876495 C288.64666473 796.044252 285.08888041 796.03734783 281.53088379 796.02740479 C280.50819948 796.03186623 279.48551517 796.03632767 278.43184042 796.04092431 C263.4901443 795.96026024 250.90597776 792.51473003 239.85546875 782.0859375 C235.1277477 777.2554399 231.12321292 771.96246943 227.07470703 766.56665039 C223.09312768 761.26805166 218.9710788 756.11667225 214.73046875 751.0234375 C209.83326932 745.13410422 205.10075657 739.16429812 200.46484375 733.06640625 C197.59270019 729.31919201 194.59809705 725.67460336 191.60546875 722.0234375 C187.11639294 716.54294172 182.75423419 710.98578004 178.48046875 705.3359375 C173.4624479 698.70612288 168.25493842 692.26298909 162.93994141 685.86962891 C158.64770297 680.69521022 154.53389639 675.4186732 150.46484375 670.06640625 C147.59270019 666.31919201 144.59809705 662.67460336 141.60546875 659.0234375 C137.1163935 653.5429424 132.75422303 647.98578741 128.48046875 642.3359375 C123.53205362 635.79784121 118.39510087 629.44916274 113.14868164 623.14868164 C109.11266406 618.28051855 105.22972203 613.31866092 101.41796875 608.2734375 C96.42278531 601.66200827 91.23660734 595.24084183 85.93969727 588.86938477 C81.66080229 583.71092919 77.5601803 578.44996163 73.5 573.1171875 C70.41524755 569.09413062 67.23366362 565.15018249 64.04296875 561.2109375 C63.49503662 560.531521 62.94710449 559.85210449 62.38256836 559.15209961 C59.70181675 555.85567299 57.00576793 552.70460919 53.91796875 549.7734375 C52.80092245 551.1951328 51.68388657 552.61683628 50.56689453 554.03857422 C49.57715749 555.29814935 48.58724334 556.55758533 47.59716797 557.81689453 C45.12584338 560.96073076 42.65657798 564.106093 40.1953125 567.2578125 C34.76943205 574.19810137 29.25674798 581.05934935 23.68408203 587.88232422 C20.36014457 591.96398919 17.11015328 596.08789895 13.91796875 600.2734375 C9.58906876 605.9489497 5.12886758 611.50574676 0.6003418 617.02319336 C-2.44451302 620.73505505 -5.38289149 624.49874768 -8.26953125 628.3359375 C-14.92396188 636.60187951 -23.65642687 641.79151721 -34.08203125 643.7734375 C-48.5717861 645.30307898 -60.45629587 642.93176059 -72.08203125 633.7734375 C-77.12503166 629.52434625 -81.00770366 624.40979081 -84.96850586 619.16577148 C-88.40594311 614.61650506 -91.96858179 610.1838316 -95.58203125 605.7734375 C-100.3311416 599.96766733 -104.94058166 594.08235189 -109.48828125 588.1171875 C-112.44414188 584.27456869 -115.51310932 580.5259244 -118.58203125 576.7734375 C-123.33058702 570.96719877 -127.94056349 565.08237573 -132.48828125 559.1171875 C-135.44414188 555.27456869 -138.51310932 551.5259244 -141.58203125 547.7734375 C-146.33058702 541.96719877 -150.94056349 536.08237573 -155.48828125 530.1171875 C-158.44414188 526.27456869 -161.51310932 522.5259244 -164.58203125 518.7734375 C-169.33058702 512.96719877 -173.94056349 507.08237573 -178.48828125 501.1171875 C-181.44414188 497.27456869 -184.51310932 493.5259244 -187.58203125 489.7734375 C-192.33058702 483.96719877 -196.94056349 478.08237573 -201.48828125 472.1171875 C-204.44414188 468.27456869 -207.51310932 464.5259244 -210.58203125 460.7734375 C-215.33058702 454.96719877 -219.94056349 449.08237573 -224.48828125 443.1171875 C-227.98155252 438.57593485 -231.62977328 434.16025785 -235.25683594 429.72583008 C-239.51653796 424.50436131 -243.63567997 419.19122229 -247.71484375 413.828125 C-250.86089429 409.76837001 -254.14683847 405.83872586 -257.46484375 401.91796875 C-259.08203125 399.7734375 -259.08203125 399.7734375 -259.08203125 397.7734375 C-262.75846568 401.31200564 -265.97566308 405.03498337 -269.08203125 409.0859375 C-273.19983534 414.39504706 -277.38982345 419.63594788 -281.64453125 424.8359375 C-286.37093997 430.62164221 -290.95872864 436.48832629 -295.48828125 442.4296875 C-298.98441301 446.97465879 -302.63584787 451.39376548 -306.265625 455.83203125 C-310.44941514 460.96086575 -314.48721454 466.18136776 -318.5 471.4453125 C-321.38850527 475.20048205 -324.39198838 478.85929478 -327.39453125 482.5234375 C-331.88353695 488.00399329 -336.24576342 493.56109179 -340.51953125 499.2109375 C-345.5375521 505.84075212 -350.74506158 512.28388591 -356.06005859 518.67724609 C-360.35229703 523.85166478 -364.46610361 529.1282018 -368.53515625 534.48046875 C-371.40729981 538.22768299 -374.40190295 541.87227164 -377.39453125 545.5234375 C-381.88360706 551.00393328 -386.24576581 556.56109496 -390.51953125 562.2109375 C-395.5375521 568.84075212 -400.74506158 575.28388591 -406.06005859 581.67724609 C-410.35229703 586.85166478 -414.46610361 592.1282018 -418.53515625 597.48046875 C-421.40729981 601.22768299 -424.40190295 604.87227164 -427.39453125 608.5234375 C-431.8836065 614.0039326 -436.24577697 619.56108759 -440.51953125 625.2109375 C-445.46794638 631.74903379 -450.60489913 638.09771226 -455.85131836 644.39819336 C-459.88733594 649.26635645 -463.77027797 654.22821408 -467.58203125 659.2734375 C-472.57721469 665.88486673 -477.76339266 672.30603317 -483.06030273 678.67749023 C-487.35240629 683.85186951 -491.4661733 689.12829346 -495.53515625 694.48046875 C-498.40729981 698.22768299 -501.40190295 701.87227164 -504.39453125 705.5234375 C-508.88360706 711.00393328 -513.24576581 716.56109496 -517.51953125 722.2109375 C-522.5375521 728.84075212 -527.74506158 735.28388591 -533.06005859 741.67724609 C-537.34325537 746.8407648 -541.44770327 752.10710075 -545.51171875 757.4453125 C-550.09661952 763.42498451 -554.88329582 769.2460078 -559.67529297 775.06005859 C-560.84369771 776.48315204 -561.99792488 777.91787169 -563.1484375 779.35546875 C-570.88758221 788.74658867 -581.41853772 794.40253639 -593.51953125 795.6484375 C-606.2059722 796.21162063 -617.48903449 792.62885193 -627.57421875 784.8515625 C-636.73784359 776.20663341 -641.81606085 764.14389446 -642.33203125 751.6484375 C-642.12611202 736.38467459 -634.74342925 725.95935317 -625.56103516 714.61132812 C-623.69802311 712.29624812 -621.86989013 709.95516148 -620.04296875 707.61157227 C-615.0629898 701.22551373 -609.97073861 694.93647359 -604.84814453 688.66455078 C-600.68796875 683.55601792 -596.67016517 678.3565742 -592.67578125 673.1171875 C-589.17964949 668.57221621 -585.52821463 664.15310952 -581.8984375 659.71484375 C-578.55596629 655.61736728 -575.28797624 651.47863808 -572.08203125 647.2734375 C-567.80082869 641.65783414 -563.36860315 636.18068435 -558.8984375 630.71484375 C-554.71464736 625.58600925 -550.67684796 620.36550724 -546.6640625 615.1015625 C-543.77555723 611.34639295 -540.77207412 607.68758022 -537.76953125 604.0234375 C-533.28052611 598.54288239 -528.91828793 592.98579058 -524.64453125 587.3359375 C-519.69611612 580.79784121 -514.55916337 574.44916274 -509.31274414 568.14868164 C-505.27672656 563.28051855 -501.39378453 558.31866092 -497.58203125 553.2734375 C-492.58684781 546.66200827 -487.40066984 540.24084183 -482.10375977 533.86938477 C-477.81165621 528.69500549 -473.6978892 523.41858154 -469.62890625 518.06640625 C-466.75676269 514.31919201 -463.76215955 510.67460336 -460.76953125 507.0234375 C-456.28045544 501.54294172 -451.91829669 495.98578004 -447.64453125 490.3359375 C-442.6265104 483.70612288 -437.41900092 477.26298909 -432.10400391 470.86962891 C-427.81176547 465.69521022 -423.69795889 460.4186732 -419.62890625 455.06640625 C-416.75676269 451.31919201 -413.76215955 447.67460336 -410.76953125 444.0234375 C-406.28045544 438.54294172 -401.91829669 432.98578004 -397.64453125 427.3359375 C-392.6265104 420.70612288 -387.41900092 414.26298909 -382.10400391 407.86962891 C-377.81176547 402.69521022 -373.69795889 397.4186732 -369.62890625 392.06640625 C-366.75676269 388.31919201 -363.76215955 384.67460336 -360.76953125 381.0234375 C-356.280456 375.5429424 -351.91828553 369.98578741 -347.64453125 364.3359375 C-342.69611612 357.79784121 -337.55916337 351.44916274 -332.31274414 345.14868164 C-328.27672656 340.28051855 -324.39378453 335.31866092 -320.58203125 330.2734375 C-315.58684781 323.66200827 -310.40066984 317.24084183 -305.10375977 310.86938477 C-300.81165621 305.69500549 -296.6978892 300.41858154 -292.62890625 295.06640625 C-289.75676269 291.31919201 -286.76215955 287.67460336 -283.76953125 284.0234375 C-279.28045544 278.54294172 -274.91829669 272.98578004 -270.64453125 267.3359375 C-265.6265104 260.70612288 -260.41900092 254.26298909 -255.10400391 247.86962891 C-250.81176547 242.69521022 -246.69795889 237.4186732 -242.62890625 232.06640625 C-239.75676269 228.31919201 -236.76215955 224.67460336 -233.76953125 221.0234375 C-229.280456 215.5429424 -224.91828553 209.98578741 -220.64453125 204.3359375 C-215.69611612 197.79784121 -210.55916337 191.44916274 -205.31274414 185.14868164 C-201.27672656 180.28051855 -197.39378453 175.31866092 -193.58203125 170.2734375 C-188.58684781 163.66200827 -183.40066984 157.24084183 -178.10375977 150.86938477 C-173.81165621 145.69500549 -169.6978892 140.41858154 -165.62890625 135.06640625 C-162.75676269 131.31919201 -159.76215955 127.67460336 -156.76953125 124.0234375 C-152.28045544 118.54294172 -147.91829669 112.98578004 -143.64453125 107.3359375 C-138.6265104 100.70612288 -133.41900092 94.26298909 -128.10400391 87.86962891 C-123.81176547 82.69521022 -119.69795889 77.4186732 -115.62890625 72.06640625 C-112.75676269 68.31919201 -109.76215955 64.67460336 -106.76953125 61.0234375 C-102.28045211 55.54293765 -97.91839872 49.98570576 -93.64453125 44.3359375 C-88.64962308 37.73884615 -83.48066121 31.31371152 -78.18310547 24.95751953 C-74.92003535 21.03544616 -71.74380254 17.06818602 -68.64892578 13.01220703 C-59.33129211 0.84486168 -49.60756769 -7.71144123 -33.9609375 -10.00390625 C-21.41600439 -10.97413853 -9.86318037 -8.01256302 0 0 Z " fill="#000000" transform="translate(688.08203125,75.2265625)"/>
<path d="M0 0 C8.55817994 8.36161397 15.79539536 17.94886686 23.1484375 27.36328125 C26.0696896 31.09913268 29.03171224 34.80147616 32 38.5 C35.84272089 43.28937095 39.65559248 48.09998465 43.4375 52.9375 C47.41929766 58.02908557 51.47320971 63.05692235 55.5625 68.0625 C60.28843122 73.848608 64.87668173 79.71486825 69.40625 85.65625 C72.36211063 89.49886881 75.43107807 93.2475131 78.5 97 C83.25268786 102.81129119 87.86651993 108.70131532 92.41796875 114.671875 C95.30647402 118.42704455 98.30995713 122.08585728 101.3125 125.75 C105.80150514 131.23055511 110.16374332 136.78764692 114.4375 142.4375 C119.38591513 148.97559629 124.52286788 155.32427476 129.76928711 161.62475586 C133.80530469 166.49291895 137.68824672 171.45477658 141.5 176.5 C146.49518344 183.11142923 151.68136141 189.53259567 156.97827148 195.90405273 C161.27037504 201.07843201 165.38414205 206.35485596 169.453125 211.70703125 C172.32526856 215.45424549 175.3198717 219.09883414 178.3125 222.75 C182.80157525 228.2304951 187.16374572 233.78765009 191.4375 239.4375 C196.38591513 245.97559629 201.52286788 252.32427476 206.76928711 258.62475586 C211.37262408 264.17720816 215.75826953 269.87104288 220.10546875 275.625 C223.94955336 280.68839474 227.93219359 285.61504043 232 290.5 C236.63770253 296.06933813 241.13111723 301.71736192 245.5 307.5 C250.49518344 314.11142923 255.68136141 320.53259567 260.97827148 326.90405273 C265.27037504 332.07843201 269.38414205 337.35485596 273.453125 342.70703125 C276.32526856 346.45424549 279.3198717 350.09883414 282.3125 353.75 C286.80157525 359.2304951 291.16374572 364.78765009 295.4375 370.4375 C300.38591513 376.97559629 305.52286788 383.32427476 310.76928711 389.62475586 C315.37262408 395.17720816 319.75826953 400.87104288 324.10546875 406.625 C327.94955336 411.68839474 331.93219359 416.61504043 336 421.5 C340.63770253 427.06933813 345.13111723 432.71736192 349.5 438.5 C354.49518344 445.11142923 359.68136141 451.53259567 364.97827148 457.90405273 C369.27037504 463.07843201 373.38414205 468.35485596 377.453125 473.70703125 C380.32526856 477.45424549 383.3198717 481.09883414 386.3125 484.75 C390.80157525 490.2304951 395.16374572 495.78765009 399.4375 501.4375 C404.38591513 507.97559629 409.52286788 514.32427476 414.76928711 520.62475586 C419.37262408 526.17720816 423.75826953 531.87104288 428.10546875 537.625 C431.94955336 542.68839474 435.93219359 547.61504043 440 552.5 C445.20055481 558.74525787 450.18996997 565.11465614 455.08569336 571.60083008 C459.66699434 577.63946775 464.45557852 583.49074354 469.33203125 589.29296875 C469.88375 589.95296875 470.43546875 590.61296875 471.00390625 591.29296875 C471.72815796 592.15184692 471.72815796 592.15184692 472.46704102 593.02807617 C474.45901411 595.59045341 476.20913367 598.29444905 478 601 C457.83321707 601.28068093 437.66683197 601.49210504 417.49849892 601.62174606 C408.13326234 601.68354914 398.76924131 601.76775957 389.40478516 601.90527344 C381.23985698 602.02511519 373.07580922 602.10235238 364.91002595 602.12906194 C360.58819629 602.1446698 356.26888454 602.1811735 351.94786453 602.26876068 C347.87421342 602.35065913 343.80409821 602.37525758 339.729702 602.35729218 C338.2404782 602.36057463 336.7511276 602.3842 335.26261902 602.4304657 C324.33986456 602.75310924 324.33986456 602.75310924 320.42057371 599.81663799 C317.08806196 596.58068201 314.5494878 592.87589917 312 589 C311.02762005 587.75280196 310.04342789 586.5145562 309.0390625 585.29296875 C307.84410156 583.75576172 307.84410156 583.75576172 306.625 582.1875 C302.78352508 577.26423042 298.908519 572.37021872 295 567.5 C290.68120936 562.11574108 286.40078715 556.7033104 282.14453125 551.26953125 C278.28924299 546.35376255 274.38766562 541.47605876 270.47827148 536.60327148 C267.14522892 532.44436131 263.84507652 528.26131086 260.5625 524.0625 C256.58070234 518.97091443 252.52679029 513.94307765 248.4375 508.9375 C243.71156878 503.151392 239.12331827 497.28513175 234.59375 491.34375 C231.63788937 487.50113119 228.56892193 483.7524869 225.5 480 C220.75144423 474.19376127 216.14146776 468.30893823 211.59375 462.34375 C208.63788937 458.50113119 205.56892193 454.7524869 202.5 451 C197.74731214 445.18870881 193.13348007 439.29868468 188.58203125 433.328125 C185.69352598 429.57295545 182.69004287 425.91414272 179.6875 422.25 C175.1984943 416.76944421 170.83626783 411.21234571 166.5625 405.5625 C161.54447915 398.93268538 156.33696967 392.48955159 151.02197266 386.09619141 C146.73691575 380.93043026 142.62999683 375.66256173 138.56640625 370.3203125 C135.03896446 365.7188144 131.36065693 361.23858351 127.6887207 356.75219727 C124.61571312 352.99741611 121.5996718 349.20863711 118.625 345.375 C111.05042317 335.9737061 101.73857881 330.20948843 89.66015625 328.21875 C76.65191001 327.14905574 65.20477494 330.42520136 54.875 338.36328125 C48.82510271 343.91176042 43.95801194 350.48501119 39 357 C38.46616699 357.69867187 37.93233398 358.39734375 37.38232422 359.1171875 C35.23470357 361.92928342 33.08882479 364.74262359 30.95239258 367.56323242 C26.45945096 373.47165662 21.76650921 379.19664996 17.02197266 384.90380859 C12.74409664 390.06091297 8.64408513 395.32012652 4.5859375 400.65234375 C1.48242332 404.7002447 -1.72436994 408.66390561 -4.9375 412.625 C-5.77196655 413.65669312 -5.77196655 413.65669312 -6.62329102 414.70922852 C-7.14850342 415.35432373 -7.67371582 415.99941895 -8.21484375 416.6640625 C-8.68011475 417.23592285 -9.14538574 417.8077832 -9.62475586 418.39697266 C-11.01246395 420.01452837 -12.4737995 421.51342282 -14 423 C-20.00213959 416.08370688 -25.79252139 409.05857974 -31.3125 401.75 C-36.36997396 395.05490386 -41.61383928 388.54843343 -46.97753906 382.09692383 C-51.26562163 376.92716264 -55.37595747 371.65576037 -59.44140625 366.30859375 C-62.3807382 362.47382073 -65.44098527 358.73948491 -68.5 355 C-73.24862969 349.19382425 -77.85853483 343.30893484 -82.40625 337.34375 C-85.36211063 333.50113119 -88.43107807 329.7524869 -91.5 326 C-96.24855577 320.19376127 -100.85853224 314.30893823 -105.40625 308.34375 C-108.36211063 304.50113119 -111.43107807 300.7524869 -114.5 297 C-119.24855577 291.19376127 -123.85853224 285.30893823 -128.40625 279.34375 C-131.36211063 275.50113119 -134.43107807 271.7524869 -137.5 268 C-141.40905125 263.2202552 -145.25632024 258.41054099 -149 253.5 C-152.80669604 248.50720454 -156.71894311 243.61495594 -160.6875 238.75 C-161.51725342 237.72749146 -161.51725342 237.72749146 -162.36376953 236.68432617 C-164.6899883 233.81937834 -167.02535074 230.97022619 -169.41796875 228.16015625 C-170.38669922 226.99806641 -170.38669922 226.99806641 -171.375 225.8125 C-171.91898437 225.17957031 -172.46296875 224.54664063 -173.0234375 223.89453125 C-174 222 -174 222 -173.9609375 219.62109375 C-172.71094582 216.21156359 -170.65400389 213.89369808 -168.25 211.25 C-163.84373426 206.23294318 -159.70191143 201.08542434 -155.6875 195.75 C-151.2573727 189.88278907 -146.7056282 184.14857849 -142 178.5 C-137.36217435 172.93076837 -132.86887802 167.2826318 -128.5 161.5 C-123.50481656 154.88857077 -118.31863859 148.46740433 -113.02172852 142.09594727 C-108.72962496 136.92156799 -104.61585795 131.64514404 -100.546875 126.29296875 C-97.67473144 122.54575451 -94.6801283 118.90116586 -91.6875 115.25 C-87.19842419 109.76950422 -82.83626544 104.21234254 -78.5625 98.5625 C-73.54447915 91.93268538 -68.33696967 85.48955159 -63.02197266 79.09619141 C-58.72973422 73.92177272 -54.61592764 68.6452357 -50.546875 63.29296875 C-47.67473144 59.54575451 -44.6801283 55.90116586 -41.6875 52.25 C-37.1984203 46.76949947 -32.83637868 41.21226085 -28.5625 35.5625 C-22.44164649 27.47861728 -16.02241824 19.66595381 -9.54345703 11.86816406 C-6.30984126 7.95427164 -3.1499291 3.98143212 0 0 Z " fill="#8FE8FE" transform="translate(659,181)"/>
</svg>
